<?xml version="1.0" encoding="UTF-8"?>
<svg version="1.1" xmlns="http://www.w3.org/2000/svg" width="512" height="512">
<path d="M0 0 C18.0675 -0.12375 18.0675 -0.12375 36.5 -0.25 C40.26986328 -0.28641602 44.03972656 -0.32283203 47.92382812 -0.36035156 C52.61230469 -0.37841797 52.61230469 -0.37841797 54.8236084 -0.3817749 C56.33212031 -0.3878223 57.84061586 -0.4016868 59.34899902 -0.42230225 C78.39969467 -0.66911408 96.56884288 2.91760521 110.80859375 16.5859375 C121.92594814 28.83286265 122.86994233 42.8288982 122.15966797 58.64355469 C121.3834591 70.09916323 115.95620462 79.64815274 107.5625 87.375 C103.6018551 90.68234265 99.45626443 93.40726433 95 96 C95.4832373 96.65919434 95.96647461 97.31838867 96.46435547 97.99755859 C101.44228605 104.81179778 106.3144181 111.69182994 111.125 118.625 C111.80175781 119.59695313 112.47851562 120.56890625 113.17578125 121.5703125 C125 138.5862095 125 138.5862095 125 140 C115.90134882 140.69192613 106.81395316 141.12418681 97.6875 140.91015625 C96.92173141 140.91321274 96.15596283 140.91626923 95.36698914 140.91941833 C90.0825571 140.72150293 87.35765189 139.24426632 83.56877136 135.58110046 C81.56375972 133.10457675 80.44243047 130.42545322 79.20556641 127.50976562 C76.72493879 122.34555909 73.16658556 117.79577549 69.875 113.125 C68.57703127 111.2134432 67.28247167 109.2995647 65.9921875 107.3828125 C64.16453699 104.55435359 64.16453699 104.55435359 62 102 C59.9291528 101.8415735 57.85321971 101.74875578 55.77734375 101.68359375 C54.64288818 101.64548584 53.50843262 101.60737793 52.33959961 101.56811523 C50.1605603 101.50346069 50.1605603 101.50346069 47.9375 101.4375 C43.338125 101.293125 38.73875 101.14875 34 101 C34 113.87 34 126.74 34 140 C22.78 140 11.56 140 0 140 C0 93.8 0 47.6 0 0 Z M34 27 C34 42.84 34 58.68 34 75 C60.07670508 76.94150074 60.07670508 76.94150074 83 67 C88.06110435 61.4266875 89.31014808 55.41253917 89 48 C88.13038864 40.45221934 85.10008 36.41381278 79.3515625 31.59375 C72.87535657 27.2045606 66.06183779 26.87175265 58.4140625 26.90234375 C57.12967285 26.90484131 55.8452832 26.90733887 54.52197266 26.90991211 C52.09797119 26.92356812 52.09797119 26.92356812 49.625 26.9375 C41.890625 26.9684375 41.890625 26.9684375 34 27 Z " fill="#FFFFFF" transform="translate(105,202)"/>
<path d="M0 0 C7.20689466 6.36139305 11.2315825 15.34720442 12.32421875 24.734375 C12.40285156 26.01828125 12.48148437 27.3021875 12.5625 28.625 C12.64886719 29.91921875 12.73523438 31.2134375 12.82421875 32.546875 C12.875 35.875 12.875 35.875 11.875 38.875 C-7.925 38.875 -27.725 38.875 -48.125 38.875 C-46.475 41.515 -44.825 44.155 -43.125 46.875 C-43.125 47.535 -43.125 48.195 -43.125 48.875 C-42.403125 49.16375 -41.68125 49.4525 -40.9375 49.75 C-39.23084867 50.43266053 -37.53587198 51.14714045 -35.8671875 51.91796875 C-29.68503314 54.07555823 -22.28941301 53.98481369 -16.12890625 51.82421875 C-13.71306323 50.60732308 -11.42486784 49.29626664 -9.125 47.875 C-7.805 47.215 -6.485 46.555 -5.125 45.875 C-1.165 50.165 2.795 54.455 6.875 58.875 C3.27438414 66.07623171 -2.69357471 69.37105763 -10.125 71.875 C-24.33022387 75.72095581 -40.03095897 74.35347913 -53 67.375 C-55.86322065 65.72679919 -58.59551602 64.00747977 -61.125 61.875 C-61.125 61.215 -61.125 60.555 -61.125 59.875 C-62.115 59.545 -63.105 59.215 -64.125 58.875 C-71.30531049 50.29228512 -73.58291171 39.14216658 -73.0625 28.1875 C-71.65184111 15.85173826 -66.66064654 5.98453938 -56.95703125 -1.81640625 C-39.04119095 -14.61343503 -17.36656972 -11.80926741 0 0 Z M-45.92578125 16.86328125 C-47.57993242 19.36078085 -47.57993242 19.36078085 -48.125 24.875 C-35.585 24.875 -23.045 24.875 -10.125 24.875 C-13.02262917 17.14798887 -14.33071644 14.49486246 -20.75 10.0625 C-30.9369154 6.47821495 -38.94391577 9.00181067 -45.92578125 16.86328125 Z " fill="#FFFFFF" transform="translate(420.125,270.125)"/>
<path d="M0 0 C7.92 0 15.84 0 24 0 C24 5.61 24 11.22 24 17 C30.6 17 37.2 17 44 17 C44 23.27 44 29.54 44 36 C37.4 36 30.8 36 24 36 C24.07425367 40.85721444 24.15730476 45.71267185 24.26245117 50.5690918 C24.2955636 52.2187366 24.32363756 53.86849096 24.34643555 55.51831055 C24.38023533 57.89939768 24.43256004 60.27949306 24.48828125 62.66015625 C24.49467117 63.38960953 24.5010611 64.11906281 24.50764465 64.87062073 C24.6498881 69.90233342 25.65510343 73.52331394 28 78 C30.3123449 79.15617245 31.74055727 79.16588704 34.3125 79.1875 C35.07175781 79.20167969 35.83101563 79.21585937 36.61328125 79.23046875 C39.36013806 78.96522398 41.49211899 78.12299804 44 77 C45.00399524 79.62353518 46.00334445 82.24867795 47 84.875 C47.28617187 85.62136719 47.57234375 86.36773437 47.8671875 87.13671875 C50 92.7734375 50 92.7734375 50 95 C40.40183162 100.33231577 30.15978981 101.06477913 19.50390625 98.72265625 C12.59260008 96.7279735 8.15585564 94.05567536 4 88 C0.43771746 80.74821054 -0.14577855 74.67889358 -0.09765625 66.76171875 C-0.0962413 65.88095169 -0.09482635 65.00018463 -0.09336853 64.09272766 C-0.08778937 61.29094997 -0.07524071 58.48925338 -0.0625 55.6875 C-0.05748231 53.78320428 -0.05291987 51.87890731 -0.04882812 49.97460938 C-0.03782677 45.31637519 -0.02057649 40.65820133 0 36 C-3.96 36 -7.92 36 -12 36 C-12 29.73 -12 23.46 -12 17 C-8.04 17 -4.08 17 0 17 C0 11.39 0 5.78 0 0 Z " fill="#FFFFFF" transform="translate(294,244)"/>
<path d="M0 0 C7.92 0 15.84 0 24 0 C25.71987206 1.71987206 25.11974788 3.90877029 25.12442017 6.20132446 C25.12082489 6.94578827 25.11722961 7.69025208 25.11352539 8.45727539 C25.11367142 9.23770706 25.11381744 10.01813873 25.1139679 10.82221985 C25.11326858 13.4140598 25.10547536 16.00582878 25.09765625 18.59765625 C25.09579213 20.3898464 25.0943682 22.18203706 25.09336853 23.97422791 C25.08954284 28.70070797 25.07971212 33.42715752 25.06866455 38.15362549 C25.05845153 42.9728555 25.05387115 47.79209042 25.04882812 52.61132812 C25.03808989 62.07423435 25.02049268 71.53710987 25 81 C16.75 81 8.5 81 0 81 C0 54.27 0 27.54 0 0 Z " fill="#FFFFFF" transform="translate(246,261)"/>
<path d="M0 0 C1.19496094 0.72316406 1.19496094 0.72316406 2.4140625 1.4609375 C3.47367188 2.09257812 4.53328125 2.72421875 5.625 3.375 C7.19121094 4.31472656 7.19121094 4.31472656 8.7890625 5.2734375 C17.13120686 9.7591161 25.96103256 10.43926251 35.1796875 8.2421875 C40.16767367 6.52545513 44.04872615 4.56889251 48 1 C48.66 1 49.32 1 50 1 C48.87632582 4.26887035 47.40840084 6.95834299 45.5 9.8125 C41.00808045 16.91476807 39.92306969 24.68609804 41 33 C42.81222521 39.1615657 44.88876507 44.99659092 49 50 C48.505 50.99 48.505 50.99 48 52 C47.443125 51.60167969 46.88625 51.20335937 46.3125 50.79296875 C36.20074354 43.7728135 28.52349216 41.79530889 16 43 C12.40424837 43.92993577 9.26968199 45.2530219 6 47 C5.28585938 47.3815625 4.57171875 47.763125 3.8359375 48.15625 C2.2027716 49.06717919 0.59737935 50.02768213 -1 51 C-0.38073236 47.87582957 0.67496931 45.703681 2.4375 43.0625 C7.41382412 35.59058647 8.7838798 27.72726593 7.56640625 18.83203125 C6.26899456 13.04865372 4.4415744 8.35193588 0.98828125 3.5234375 C0 2 0 2 0 0 Z " fill="#FFFFFF" transform="translate(235,167)"/>
<path d="M0 0 C3.1499208 1.55809787 5.44594102 3.48723222 6.6953125 6.8984375 C7.56122323 11.70700558 6.77560635 14.88444576 4 19 C0.23582749 22.41382745 -2.65739018 22.57051886 -7.58984375 22.41796875 C-11.3443367 21.76686543 -12.83938703 20.03836198 -15 17 C-17.01464916 13.75904265 -17.1406705 11.5885776 -16.4375 7.9375 C-15.29681056 3.98609213 -13.52205201 2.20128251 -10 0 C-6.7024182 -1.6487909 -3.43708846 -0.91188061 0 0 Z " fill="#FFFFFF" transform="translate(263,227)"/>
</svg>
